<?xml version="1.0" encoding="utf-8"?>
<!-- Generator: Adobe Illustrator 20.0.0, SVG Export Plug-In . SVG Version: 6.00 Build 0)  -->
<svg version="1.1" id="Layer_1" xmlns="http://www.w3.org/2000/svg" xmlns:xlink="http://www.w3.org/1999/xlink" x="0px" y="0px"
	 viewBox="0 0 96 87" style="enable-background:new 0 0 96 87;" xml:space="preserve">
<style type="text/css">
	.st0{fill:#4D6272;}
</style>
<g>
	<path class="st0" d="M91.7,0H4.3C1.9,0,0,1.9,0,4.3V52v2v7.7C0,64.1,1.9,66,4.3,66H36v8h-4.1c-1.6,0-2.9,1.3-2.9,2.9v0.2
		c0,1.6,1.3,2.9,2.9,2.9H53v4.2c0,1.6,1.3,2.8,2.8,2.8h26.3c1.6,0,2.8-1.3,2.8-2.8V75v-9h6.7c2.3,0,4.3-1.9,4.3-4.3V54v-2V4.3
		C96,1.9,94.1,0,91.7,0z M4.3,64C3,64,2,63,2,61.7V54h51v10H36H4.3z M38,66h1v4h1v-4h1v4h1v-4h1v4h1v-4h1v4h1v-4h1v4h1v-4h1v4h1v-4
		h1v4h1v-4h1v8H38V66z M31.9,78c-0.5,0-0.9-0.4-0.9-0.9v-0.2c0-0.5,0.4-0.9,0.9-0.9H36h17v2H31.9z M83,84.2c0,0.5-0.4,0.8-0.8,0.8
		H55.8c-0.5,0-0.8-0.4-0.8-0.8V75h28V84.2z M83,74H55V33h28V74z M83,32H55v-7.2c0-0.5,0.4-0.8,0.8-0.8H82h0.1c0.5,0,0.9,0.4,0.9,0.8
		V32z M94,61.7c0,1.2-1,2.3-2.3,2.3H85V54h9V61.7z M85,52V32v-7.2c0-1.6-1.3-2.8-2.8-2.8H55.8c-1.6,0-2.8,1.3-2.8,2.8V32v20H2V4.3
		C2,3,3,2,4.3,2h87.6C93.1,2,94,3,94,4.3V52H85z"/>
	<path class="st0" d="M72,26h-7c-0.6,0-1,0.4-1,1s0.4,1,1,1h7c0.6,0,1-0.4,1-1S72.6,26,72,26z"/>
	<path class="st0" d="M68.7,83.1c1.8,0,3.3-1.5,3.3-3.3s-1.5-3.3-3.3-3.3c-1.8,0-3.3,1.5-3.3,3.3S66.8,83.1,68.7,83.1z M68.7,77.5
		c1.3,0,2.3,1,2.3,2.3c0,1.3-1,2.3-2.3,2.3c-1.3,0-2.3-1-2.3-2.3C66.4,78.6,67.4,77.5,68.7,77.5z"/>
</g>
</svg>
